<?xml version="1.0" encoding="utf-8"?>
<!-- Generator: Adobe Illustrator 21.1.0, SVG Export Plug-In . SVG Version: 6.00 Build 0)  -->
<svg version="1.1" id="图层_1" xmlns="http://www.w3.org/2000/svg" xmlns:xlink="http://www.w3.org/1999/xlink" x="0px" y="0px"
	 viewBox="0 0 100 100" style="enable-background:new 0 0 100 100;" xml:space="preserve">
<style type="text/css">
	.st0{fill:#FDD089;}
	.st1{fill:#073170;}
</style>
<g>
	<polygon class="st0" points="66.8,31.2 66.8,17.1 66.8,11.1 61.6,14.1 61.6,34.2 79,44.3 79,38.2 	"/>
	<polygon class="st0" points="70.7,82.6 70.7,68.6 70.7,62.6 76,65.6 76,85.6 58.6,95.7 58.6,89.7 	"/>
	<path class="st0" d="M58.6,39L41.2,49v20.1l17.4,10l17.4-10V49L58.6,39z M70.7,66.1l-12.2,7l-12.2-7V52l12.2-7l12.2,7V66.1z"/>
	<polygon class="st0" points="58.6,89.9 46.4,82.9 46.4,88.9 58.6,95.9 70.7,88.9 70.7,82.9 	"/>
	<polygon class="st0" points="21.1,62.7 21.1,74.2 26.3,77.2 26.3,65.7 	"/>
</g>
<g>
	<polygon class="st1" points="50.6,31.2 38.4,38.2 26.2,31.2 26.2,17.1 38.4,10.1 50.6,17.1 50.6,17.2 55.8,14.2 55.8,14.1 
		38.4,4.1 21,14.1 21,34.2 38.4,44.3 55.8,34.2 55.8,24.2 50.6,24.2 	"/>
	<rect x="34.8" y="24.2" class="st1" width="16.1" height="5"/>
	<polygon class="st1" points="21.2,40.6 21.2,46.7 30.9,52.3 30.9,46.3 	"/>
	<rect x="21.2" y="45.8" class="st1" width="5" height="21.8"/>
	<polygon class="st1" points="38.4,50.6 26.2,43.6 26.2,49.6 38.4,56.6 50.6,49.6 50.6,43.6 	"/>
</g>
</svg>
